<svg width="61" height="60" fill="none" xmlns="http://www.w3.org/2000/svg"><path fill="#68B738" d="M.5 0h60v60H.5z"/><g clip-path="url(#a)" fill="#fff"><path d="M36.3 31.5c-1.7 0-3.1 1.5-3.1 3.3 0 1.8 1.4 3.3 3 3.3 1.8 0 3.2-1.5 3.2-3.3 0-1.8-1.4-3.3-3.1-3.3Zm0 5c-1 0-1.6-.8-1.6-1.7 0-1 .7-1.7 1.6-1.7.9 0 1.6.7 1.6 1.7s-.7 1.7-1.6 1.7ZM27.1 13c-1.8 0-3.2 1.5-3.2 3.4s1.4 3.4 3.2 3.4c1.8 0 3.2-1.5 3.2-3.4S28.9 13 27 13Zm0 5.5c-1 0-2-1-2-2.1s1-2 2-2 2 .9 2 2-1 2-2 2ZM23.7 30.6c-1.3 0-2.3 1.1-2.3 2.5s1 2.5 2.3 2.5c1.3 0 2.4-1.1 2.4-2.5s-1-2.5-2.4-2.5Zm-.2 1.9c-.5 0 1.2 1.1 1.2.6 0-.5-1.7.4-1.2.4s1-.9 1-.4-.5-.6-1-.6ZM34 22.8s3-.9 6.2 1.5c.9.7 1.7 1.3 1.1 2-.3.4-.6.7-1.7-.4a7 7 0 0 0-5.6-1.5c-1.1.2-2 .6-3.6 2.2A8.3 8.3 0 0 1 24 29a8.1 8.1 0 0 1-5.2-2.6c-.3-.4-.3-.9-.1-1.1.1-.3.8-.5 1.2-.1.3.3 2 2 3.8 2 1.7.1 3.4.2 5.7-2 2.3-2.1 3.5-2.3 4.7-2.5Z"/><mask id="b"><path d="M44.1 39.8V21.2c0-.6-.3-.7-.5-.7h-.5c-.5 0-.5.6-.5.7v18.6c0 .4-.1 1.2-.8 2-.9.6-1.7.5-1.7.5H19.5c-.4 0-1-.2-1.6-1-.6-.8-.5-1.9-.5-1.9v-18c0-1-.7-.9-.7-.9h-.3c-.5 0-.5.6-.5.8v18.5c0 1.4.4 2.4 1.5 3.4 1.1.9 2.4.8 2.4.8h20.6c.8 0 2-.4 2.9-1.5.9-1.2.8-2.7.8-2.7Z"/></mask><path d="M44.1 39.8V21.2c0-.6-.3-.7-.5-.7h-.5c-.5 0-.5.6-.5.7v18.6c0 .4-.1 1.2-.8 2-.9.6-1.7.5-1.7.5H19.5c-.4 0-1-.2-1.6-1-.6-.8-.5-1.9-.5-1.9v-18c0-1-.7-.9-.7-.9h-.3c-.5 0-.5.6-.5.8v18.5c0 1.4.4 2.4 1.5 3.4 1.1.9 2.4.8 2.4.8h20.6c.8 0 2-.4 2.9-1.5.9-1.2.8-2.7.8-2.7Z"/><path d="M44.1 39.8h-20v.8l20-.8Zm-.5-19.3.7-20h-.7v20Zm-1 .7-20-.1v.1h20Zm0 .1h-20 20Zm0 18.5-20-.7 20 .7Zm-.8 2 13 15 .4-.3.4-.4-13.8-14.4Zm-1.7.5 2.3-19.8-1.1-.2H40v20Zm-20.6 0L16 62l1.1.2h1.2l1-19.9Zm-1.6-1L1.5 52.8 18 41.3Zm-.5-1.9 20 2.1v-2h-20Zm-.7-18.9v20h.8l-.8-20Zm-.8.8-20-.3V21.3h20Zm1.5 21.9-13 15.1 13-15.1Zm2.4.8V24H18.5l1.3 20Zm23.5-1.5L58.8 55 43.3 42.5ZM64 39.8V21.2h-40v18.6h40Zm0-18.6A20.6 20.6 0 0 0 44.3.5l-1.4 40a19.5 19.5 0 0 1-18.8-19.3h40ZM43.6.5h-.5v40h.5V.5Zm-.5 0a20.5 20.5 0 0 0-20.5 20.6l40 .3c0 .7 0 3.9-1.7 7.6a19.5 19.5 0 0 1-17.8 11.5V.5ZM22.6 21.2h40-40Zm0 0v.1h40-40Zm0 .1v10.5a8664.8 8664.8 0 0 1 0 7.3c0 .8 0 .4 0 0l40 1.5v-1.5a1362.3 1362.3 0 0 0 0-7.3V21.3h-40Zm0 17.8c0-1.4.4-7 5.3-11.8l27.7 28.8a22.7 22.7 0 0 0 7-15.5l-40-1.5Zm6.1-12.5a17.5 17.5 0 0 1 13.6-4.1A2078 2078 0 0 1 38 62.2a43 43 0 0 0 2.9.1 22 22 0 0 0 14-5.4l-26-30.3Zm11.4 15.7v-20H37a17380.8 17380.8 0 0 1-16.4 0c-1 0-.6 0 0 0l-2.2 40H40v-20ZM23 22.6a17.6 17.6 0 0 1 11.3 7.2l-32.7 23c5 7.1 12 8.8 14.6 9.2l6.8-39.4Zm11.3 7.2a17.3 17.3 0 0 1 3.1 11.7l-19.9-2a3223.4 3223.4 0 0 0-19.9-2.1 19.9 19.9 0 0 0 0 5c.3 2.2 1.1 6.3 4 10.4l32.7-23Zm3.2 9.6v-18h-40v18h40Zm0-18A20.7 20.7 0 0 0 16 .4l.7 20 .8 20a28.2 28.2 0 0 1-4-.3 19.3 19.3 0 0 1-16-18.9h40ZM16.7.4h-.3v40h.3V.5Zm-.3 0A20.5 20.5 0 0 0-4 21l40 .6c0 .7 0 4-1.8 7.7a19.4 19.4 0 0 1-17.7 11.2V.5ZM-4 21.3V39.9h40V21.2h-40Zm0 18.5c0 7 2.9 13.7 8.5 18.5l26-30.3A15.6 15.6 0 0 1 36 39.8h-40Zm8.5 18.5A23.6 23.6 0 0 0 20.9 64h.1l-1.2-20a2530.9 2530.9 0 0 1-1.3-20h.1a16 16 0 0 1 4.5.4c2 .4 4.7 1.3 7.3 3.6l-26 30.3ZM19.8 44v20H40.4l-.1-40H19.8v20Zm20.6 20c7.1 0 13.8-3.3 18.4-8.9l-31-25.3c2.7-3.3 7.1-5.8 12.5-5.8l.1 40Zm18.4-8.9a24 24 0 0 0 5.3-16l-20 .7-20 .8v-.1a17.1 17.1 0 0 1 .3-3.7 16 16 0 0 1 3.4-7l31 25.3Z" mask="url(#b)"/></g><defs><clipPath id="a"><path fill="#fff" d="M15.5 13h29v31h-29z"/></clipPath></defs></svg>